<svg xmlns="http://www.w3.org/2000/svg" viewBox="0 0 20 20">
  <defs/>
  <path fill="currentColor" d="M12.597,15.529 L7.176,15.529 Q5.013,15.529 3.475,13.992 Q2.594,13.111 2.205,11.943 Q2.107,11.648 2.246,11.37 Q2.385,11.092 2.68,10.994 Q2.974,10.896 3.252,11.035 Q3.53,11.174 3.628,11.468 Q3.906,12.301 4.535,12.931 Q5.634,14.029 7.176,14.029 L12.597,14.029 Q12.907,14.029 13.127,14.249 Q13.347,14.468 13.347,14.779 Q13.347,15.09 13.127,15.309 Q12.907,15.529 12.597,15.529 Z"/>
  <path fill="currentColor" d="M3.88,6.525 L6.074,6.525 Q6.385,6.525 6.604,6.745 Q6.824,6.965 6.824,7.275 Q6.824,7.586 6.604,7.806 Q6.385,8.025 6.074,8.025 L3.88,8.025 Q3.569,8.025 3.349,7.806 Q3.13,7.586 3.13,7.275 Q3.13,6.965 3.349,6.745 Q3.569,6.525 3.88,6.525 Z"/>
  <path fill="currentColor" d="M2.361,7.675 L5.114,3.511 Q5.539,2.867 6.278,3.089 Q7.017,3.311 7.017,4.083 L7.017,8.089 Q7.017,8.399 6.798,8.619 Q6.578,8.839 6.267,8.839 Q5.957,8.839 5.737,8.619 Q5.517,8.399 5.517,8.089 L5.517,5.62 L3.612,8.502 Q3.441,8.762 3.136,8.824 Q2.832,8.886 2.573,8.715 Q2.314,8.543 2.252,8.239 Q2.19,7.934 2.361,7.675 Z"/>
  <path fill="currentColor" d="M11.031,12.149 L13.128,14.246 Q13.347,14.466 13.347,14.777 Q13.347,15.087 13.128,15.307 L11.031,17.405 Q10.811,17.625 10.501,17.625 Q10.19,17.625 9.97,17.405 Q9.75,17.185 9.75,16.875 Q9.75,16.564 9.97,16.344 L11.537,14.777 L9.97,13.21 Q9.75,12.99 9.75,12.68 Q9.75,12.369 9.97,12.149 Q10.19,11.93 10.5,11.93 Q10.811,11.93 11.031,12.149 Z"/>
  <path fill="currentColor" d="M9.691,5.051 L12.595,5.051 Q14.76,5.051 16.296,6.588 Q17.833,8.11 17.833,10.29 Q17.833,12.189 16.61,13.649 Q16.41,13.887 16.101,13.914 Q15.791,13.942 15.553,13.742 Q15.315,13.542 15.288,13.233 Q15.26,12.923 15.46,12.685 Q16.333,11.643 16.333,10.29 Q16.333,8.736 15.236,7.649 Q14.138,6.551 12.595,6.551 L9.691,6.551 Q9.381,6.551 9.161,6.332 Q8.941,6.112 8.941,5.801 Q8.941,5.491 9.161,5.271 Q9.381,5.051 9.691,5.051 Z"/>
</svg>

