<svg xmlns="http://www.w3.org/2000/svg" viewBox="0 0 20 20">
  <defs/>
  <path fill="currentColor" d="M14.854,13.651 L4.415,7.623 Q4.146,7.468 4.065,7.168 Q3.985,6.868 4.14,6.599 Q4.295,6.33 4.596,6.249 Q4.896,6.169 5.165,6.324 L15.604,12.352 Q15.873,12.508 15.954,12.808 Q16.034,13.108 15.879,13.377 Q15.723,13.646 15.423,13.726 Q15.123,13.807 14.854,13.651 Z"/>
  <path fill="currentColor" d="M4.756,3.938 L5.515,6.77 Q5.595,7.07 5.44,7.339 Q5.285,7.608 4.985,7.689 L2.124,8.455 Q1.824,8.535 1.555,8.38 Q1.286,8.224 1.206,7.924 Q1.125,7.624 1.281,7.355 Q1.436,7.086 1.736,7.006 L3.872,6.434 L3.307,4.326 Q3.227,4.026 3.382,3.757 Q3.537,3.488 3.837,3.407 Q4.137,3.327 4.407,3.482 Q4.676,3.638 4.756,3.938 Z"/>
  <path fill="currentColor" d="M18.264,12.963 L16.156,13.527 L16.729,15.662 Q16.809,15.963 16.654,16.232 Q16.499,16.501 16.198,16.581 Q15.898,16.662 15.629,16.506 Q15.36,16.351 15.28,16.051 L14.513,13.191 Q14.433,12.891 14.588,12.622 Q14.743,12.353 15.043,12.273 L17.876,11.514 Q18.176,11.433 18.445,11.589 Q18.714,11.744 18.794,12.044 Q18.875,12.344 18.719,12.613 Q18.564,12.882 18.264,12.963 Z"/>
  <path fill="currentColor" d="M15.604,7.634 L5.165,13.662 Q4.896,13.817 4.596,13.737 Q4.295,13.656 4.14,13.387 Q3.985,13.118 4.065,12.818 Q4.146,12.518 4.415,12.363 L14.854,6.335 Q15.123,6.179 15.423,6.26 Q15.723,6.34 15.879,6.609 Q16.034,6.878 15.954,7.178 Q15.873,7.478 15.604,7.634 Z"/>
  <path fill="currentColor" d="M3.307,15.664 L3.872,13.556 L1.736,12.984 Q1.436,12.903 1.281,12.634 Q1.125,12.365 1.206,12.065 Q1.286,11.765 1.555,11.61 Q1.824,11.454 2.124,11.535 L4.985,12.301 Q5.285,12.381 5.44,12.65 Q5.595,12.919 5.515,13.219 L4.756,16.052 Q4.676,16.352 4.407,16.507 Q4.137,16.663 3.837,16.582 Q3.537,16.502 3.382,16.233 Q3.227,15.964 3.307,15.664 Z"/>
  <path fill="currentColor" d="M17.876,8.475 L15.043,7.716 Q14.743,7.635 14.588,7.366 Q14.433,7.097 14.513,6.797 L14.513,6.797 L15.28,3.937 Q15.36,3.637 15.629,3.482 Q15.898,3.327 16.198,3.407 Q16.499,3.488 16.654,3.757 Q16.809,4.026 16.729,4.326 L16.156,6.461 L18.264,7.026 Q18.564,7.106 18.72,7.375 Q18.875,7.644 18.794,7.944 Q18.714,8.244 18.445,8.4 Q18.176,8.555 17.876,8.475 Z"/>
  <path fill="currentColor" d="M10.758,3.97 L10.758,16.025 Q10.758,16.335 10.538,16.555 Q10.319,16.775 10.008,16.775 Q9.697,16.775 9.478,16.555 Q9.258,16.335 9.258,16.025 L9.258,3.97 Q9.258,3.659 9.478,3.439 Q9.697,3.22 10.008,3.22 Q10.319,3.22 10.538,3.439 Q10.758,3.659 10.758,3.97 Z"/>
  <path fill="currentColor" d="M11.561,18.635 L10.018,17.093 L8.455,18.655 Q8.235,18.875 7.924,18.875 Q7.614,18.875 7.394,18.655 Q7.174,18.436 7.174,18.125 Q7.174,17.814 7.394,17.595 L9.488,15.502 Q9.707,15.282 10.018,15.282 Q10.329,15.282 10.548,15.502 L12.622,17.575 Q12.842,17.794 12.842,18.105 Q12.842,18.416 12.622,18.635 Q12.402,18.855 12.092,18.855 Q11.781,18.855 11.561,18.635 Z"/>
  <path fill="currentColor" d="M12.622,2.425 L10.548,4.499 Q10.329,4.719 10.018,4.719 Q9.707,4.719 9.488,4.499 L7.394,2.405 Q7.174,2.186 7.174,1.875 Q7.174,1.564 7.394,1.345 Q7.614,1.125 7.924,1.125 Q8.235,1.125 8.455,1.345 L10.018,2.908 L11.561,1.365 Q11.781,1.145 12.092,1.145 Q12.402,1.145 12.622,1.365 Q12.842,1.584 12.842,1.895 Q12.842,2.206 12.622,2.425 Z"/>
</svg>

