<svg xmlns="http://www.w3.org/2000/svg" viewBox="0 0 20 20">
  <defs/>
  <path fill="currentColor" d="M9.977,5.942 L9.977,5.021 Q9.977,4.461 9.58,4.064 Q9.181,3.667 8.616,3.667 Q7.945,3.667 7.609,4.002 Q7.268,4.34 7.268,5.021 L7.268,8.988 Q7.268,9.299 7.048,9.519 Q6.829,9.738 6.518,9.738 Q6.207,9.738 5.988,9.519 Q5.768,9.299 5.768,8.988 L5.768,5.021 Q5.768,3.59 6.484,2.877 Q7.195,2.167 8.616,2.167 Q9.802,2.167 10.639,3.003 Q11.477,3.838 11.477,5.021 L11.477,5.942 Q11.477,6.253 11.257,6.473 Q11.037,6.692 10.727,6.692 Q10.416,6.692 10.196,6.473 Q9.977,6.253 9.977,5.942 Z"/>
  <path fill="currentColor" d="M8.54,6.533 Q8.824,6.152 9.229,5.841 Q9.822,5.394 10.546,5.213 Q10.554,5.21 10.562,5.209 Q10.989,5.112 11.401,5.112 Q13.205,5.112 14.288,6.553 L16.725,9.789 Q18.883,12.68 16.01,14.843 Q13.121,17.001 10.957,14.128 L8.895,11.378 Q8.709,11.129 8.753,10.822 Q8.796,10.514 9.045,10.328 Q9.294,10.142 9.601,10.186 Q9.909,10.23 10.095,10.478 L12.155,13.225 Q13.42,14.905 15.108,13.644 Q16.787,12.38 15.526,10.691 L13.089,7.454 Q12.456,6.612 11.401,6.612 Q11.16,6.612 10.901,6.67 Q10.479,6.777 10.141,7.032 Q9.902,7.216 9.742,7.43 Q9.556,7.679 9.249,7.724 Q8.941,7.768 8.692,7.583 Q8.443,7.397 8.399,7.089 Q8.354,6.782 8.54,6.533 Z"/>
  <path fill="currentColor" d="M7.992,15.661 L7.276,15.661 Q6.965,15.661 6.746,15.442 Q6.526,15.222 6.526,14.911 Q6.526,14.601 6.746,14.381 Q6.965,14.161 7.276,14.161 L7.992,14.161 Q8.303,14.161 8.523,14.381 Q8.742,14.601 8.742,14.911 Q8.742,15.222 8.523,15.442 Q8.303,15.661 7.992,15.661 Z M7.992,14.096 L7.276,14.096 Q6.965,14.096 6.746,13.876 Q6.526,13.657 6.526,13.346 Q6.526,13.035 6.746,12.816 Q6.965,12.596 7.276,12.596 L7.992,12.596 Q8.303,12.596 8.523,12.816 Q8.742,13.035 8.742,13.346 Q8.742,13.657 8.523,13.876 Q8.303,14.096 7.992,14.096 Z"/>
  <path fill="currentColor" d="M6.642,5.112 Q10.73,5.112 10.73,9.2 Q10.73,11.602 8.743,12.714 L8.743,15.732 Q8.743,17.833 6.642,17.833 Q4.539,17.833 4.539,15.732 L4.54,12.714 Q2.553,11.601 2.553,9.2 Q2.553,7.507 3.751,6.31 Q4.948,5.112 6.642,5.112 Z M6.642,6.612 Q5.57,6.612 4.812,7.37 Q4.053,8.128 4.053,9.2 Q4.053,10.882 5.594,11.566 Q6.04,11.764 6.04,12.251 L6.039,15.732 Q6.039,16.333 6.642,16.333 Q7.243,16.333 7.243,15.732 L7.243,12.251 Q7.243,11.763 7.689,11.566 Q9.23,10.882 9.23,9.2 Q9.23,7.906 8.583,7.259 Q7.936,6.612 6.642,6.612 Z"/>
</svg>

