<svg class="ds-icon" viewBox="0 0 20 20" fill="none" xmlns="http://www.w3.org/2000/svg">
<path fill-rule="evenodd" clip-rule="evenodd" d="M4.14851 2.91666C3.46844 2.91666 2.91666 3.47771 2.91666 4.16837V4.90507C2.91666 5.41666 3.11121 5.90865 3.45921 6.2787L7.27299 10.334L7.27467 10.3314C8.01093 11.0852 8.42518 12.1041 8.42518 13.1665V16.7647C8.42518 17.0052 8.67675 17.1587 8.88555 17.0452L11.0574 15.8618C11.3853 15.6827 11.5899 15.3348 11.5899 14.9571V13.1571C11.5899 12.1007 11.9983 11.086 12.7278 10.334L16.5416 6.2787C16.8888 5.90865 17.0833 5.41666 17.0833 4.90507V4.16837C17.0833 3.47771 16.5324 2.91666 15.8523 2.91666H4.14851Z" stroke="currentColor" stroke-width="1.5" stroke-linecap="round" stroke-linejoin="round" vector-effect="non-scaling-stroke"/>
</svg>
