<svg class="ds-icon" viewBox="0 0 20 20" fill="none" xmlns="http://www.w3.org/2000/svg">
<path d="M11.4903 8.52822C11.9197 8.95762 12.6159 8.95762 13.0452 8.52822C13.4746 8.09883 13.4746 7.40264 13.0452 6.97325C12.6159 6.54386 11.9197 6.54386 11.4903 6.97325C11.0609 7.40264 11.0609 8.09883 11.4903 8.52822Z" stroke="currentColor" stroke-width="1.5" stroke-linecap="round" stroke-linejoin="round" vector-effect="non-scaling-stroke"/>
<path d="M5.38506 14.6146L7.41014 14.6146L7.56253 13.266L8.76413 13.2229L8.95426 11.8743L10.112 11.8733L10.8769 11.1071C12.1285 11.595 13.6041 11.333 14.6148 10.3223C15.9782 8.95892 15.9782 6.74852 14.6148 5.38518C13.2515 4.02186 11.0411 4.02186 9.67779 5.3852C8.67609 6.38689 8.4113 7.84681 8.88165 9.09112L5.38506 12.5896L5.38506 14.6146Z" stroke="currentColor" stroke-width="1.5" stroke-linecap="round" stroke-linejoin="round" vector-effect="non-scaling-stroke"/>
</svg>
